<svg xmlns="http://www.w3.org/2000/svg" version="1.1" viewBox="-15.0 -20.0 130.0 155.0">
 <path d="m6.7109 60.551c-1.0781 0.85938-2.3906-0.78906-1.3086-1.6484 3.5703-2.8438 5.7148-1.3984 7.8555 0.050781 1.5078 1.0156 3.0156 2.0352 5.3906 0.15234 6.625-5.2617 8.1367 4.2617 13.246 0.19922 3.5703-2.8438 5.7148-1.3984 7.8594 0.050781 1.5078 1.0156 3.0156 2.0352 5.3906 0.15234 2.8047-2.2227 4.9297-1.8867 7.3867-0.27344 1.1562 0.75781 0.003906 2.5156-1.1523 1.7539-1.7422-1.1445-2.9102-1.4297-4.9219 0.16406-3.5859 2.8438-5.7344 1.3945-7.8789-0.050782-1.5039-1.0156-3.0078-2.0273-5.3672-0.14844-3.5859 2.8438-5.7344 1.3945-7.8789-0.050781-1.5039-1.0156-3.0078-2.0273-5.3672-0.14844-3.5859 2.8438-5.7344 1.3945-7.8789-0.050781-1.5078-1.0195-3.0117-2.0352-5.375-0.15234zm78.777-9.7188c0.4375 1.3125-1.5547 1.9805-1.9922 0.66797-0.42969-1.2852-1.5391-2.8242-0.22266-3.3672 1.2539-0.51953 1.8047 1.4805 2.2148 2.6992zm-3.5547-7.375c0.61719 1.2344-1.2578 2.1758-1.8789 0.9375-3.2266-6.4336-7.2852-11.043-11.949-16.254-0.92188-1.0312 0.64453-2.4297 1.5664-1.4023 4.8359 5.4062 8.8984 10.035 12.262 16.719zm-48.164 37.758c2.0469-1.3086 3.4258-0.37891 4.8047 0.55469 2.1445 1.4453 4.2891 2.8945 7.8789 0.050781 2.375-1.8828 3.8828-0.86328 5.3906 0.15234 1.457 0.98047 2.6328-0.69922 1.2344-1.707-2.1094-1.5156-4.3867-2.9023-7.9336-0.09375-5.1172 4.0586-6.6211-5.4648-13.246-0.19922-5.1094 4.0586-6.6211-5.4648-13.246-0.19922-2.375 1.8828-3.8828 0.86328-5.3906-0.15234-2.1445-1.4453-4.2852-2.8906-7.8555-0.050782-1.082 0.85938 0.23047 2.5078 1.3086 1.6484 2.3633-1.8828 3.8672-0.86719 5.3672 0.14844 2.1445 1.4453 4.2891 2.8945 7.8789 0.050781 4.8047-3.8164 6.332 4.3828 12.078 1.0078 3.2383 3.7969 7.2578 6.9062 11.809 9.0781 23.5 11.223 51.152-5.832 51.152-32.176 0-20.625-22.211-38.945-34.945-53.977-0.42969-0.50391-1.1992-0.48828-1.6172 0.015626-2.3672 2.7969-5.2188 5.832-8.25 9.0586-9.2227 9.8203-20.105 21.41-24.582 33.789-1.8672-1.1719-3.8828-1.9023-6.957 0.54297-1.082 0.85938 0.23047 2.5078 1.3086 1.6484 2.3633-1.8828 3.8672-0.86719 5.3672 0.14844 2.1445 1.4453 4.2891 2.8945 7.8789 0.050781 2.3633-1.8828 3.8672-0.86719 5.3672 0.14844 2.1445 1.4453 4.2891 2.8945 7.8789 0.050782 2.375-1.8828 3.8828-0.86328 5.3906 0.15234 2.1445 1.4453 4.2852 2.8906 7.8594 0.050781 1.0781-0.85937-0.23047-2.5078-1.3086-1.6484-2.3633 1.8828-3.8672 0.86719-5.3672-0.14844-2.1445-1.4453-4.2891-2.8945-7.8789-0.050782-2.375 1.8828-3.8828 0.86328-5.3906-0.15234-2.1445-1.4453-4.2852-2.8906-7.8594-0.050781-1.8984 1.5078-3.2422 1.1562-4.4766 0.4375 5.4336-15.656 21.059-29.324 31.836-41.75 12.574 14.477 33.641 32.48 33.641 51.68 0 9.2656-3.7656 17.648-9.8477 23.719-13.863 13.828-36.527 12.934-49.277-1.8281zm25.93-19.863c-1.082 0.85938-2.3906-0.78906-1.3086-1.6484 3.5859-2.8477 5.7305-1.3984 7.8789 0.050781 1.5039 1.0156 3.0078 2.0273 5.3711 0.14844 1.0781-0.85938 2.3906 0.78906 1.3086 1.6484-3.5742 2.8438-5.7148 1.3984-7.8594-0.050781-1.5078-1.0156-3.0156-2.0352-5.3906-0.14844zm-46.621 10.332c-1.1875-0.71484-0.097656-2.5195 1.0859-1.8047 1.5977 0.96484 2.7266 0.95312 4.4805-0.44141 3.5742-2.8398 5.7148-1.3945 7.8594 0.050781 1.5078 1.0156 3.0156 2.0312 5.3906 0.14844 1.082-0.85938 2.3906 0.78906 1.3086 1.6484-3.5859 2.8438-5.7344 1.3945-7.8789-0.050781-1.5039-1.0156-3.0078-2.0273-5.3711-0.14844-2.457 1.957-4.5547 2-6.875 0.59766zm25.57-0.20312c-1.1484-0.77344 0.027343-2.5234 1.1797-1.7461 1.8867 1.2734 3.0625 1.8867 5.3164 0.10156 3.5859-2.8438 5.7344-1.3945 7.8789 0.050781 1.5039 1.0156 3.0078 2.0273 5.3672 0.14844 3.0391-2.4141 5.1875-1.75 7.707-0.0625 1.1484 0.77344-0.023437 2.5156-1.1719 1.7461-1.8516-1.2422-3.0234-1.7852-5.2266-0.039062-6.625 5.2656-8.1289-4.2578-13.246-0.19922-3.1172 2.4766-5.2656 1.7148-7.8047 0zm31.82 1.5039c-1.2578 0.26953-2.0234-1.7422-0.20703-2.1055 1.2656-0.25781 2.0156-1.5273 2.8516-0.47266 1.0859 1.3672-1.4922 2.3398-2.4336 2.5312z" fill="currentColor"/>
</svg>