<svg xmlns="http://www.w3.org/2000/svg" version="1.1" viewBox="-15.0 -20.0 130.0 155.0">
 <path d="m50 5c24.852 0 45 20.148 45 45s-20.148 45-45 45-45-20.148-45-45 20.148-45 45-45zm-31.426 64.352 4.3672-2.5156c1.1992-0.69141 0.14453-2.5156-1.0547-1.8203l-3.5352 2.043c-2.6484-4.9023-4.1172-10.355-4.2812-16.004h4.0781c1.3867 0 1.3867-2.1094 0-2.1094h-4.0781c0.16797-5.7812 1.6953-11.219 4.2812-16.004l3.5352 2.043c1.1953 0.6875 2.2461-1.1289 1.0469-1.8203l-3.5312-2.0391c2.9414-4.7578 6.957-8.7773 11.719-11.719l2.0391 3.5352c0.69141 1.1992 2.5156 0.14453 1.8203-1.0547l-2.0391-3.5352c4.7852-2.5859 10.223-4.1133 16.004-4.2812v4.0781c0 1.3906 2.1094 1.3906 2.1094 0v-4.0781c5.7812 0.16797 11.219 1.6992 16.004 4.2812l-2.043 3.5352c-0.6875 1.1953 1.1289 2.2461 1.8203 1.0469l2.0391-3.5312c4.7617 2.9414 8.7734 6.957 11.719 11.719l-3.5352 2.0391c-1.1992 0.69141-0.14453 2.5156 1.0547 1.8203l3.5352-2.0391c2.5859 4.7852 4.1133 10.223 4.2812 16.004h-4.0781c-1.3867 0-1.3867 2.1094 0 2.1094h4.0781c-0.16016 5.6484-1.6328 11.102-4.2812 16.008l-3.5391-2.043c-1.1953-0.6875-2.2461 1.1289-1.0469 1.8203l4.2617 2.4609c0.60938 0.35156 1.2539 0.38672 1.6328-0.26953 8.6133-14.883 6.1328-33.758-6.0508-45.941-14.863-14.863-38.957-14.863-53.82 0-12.18 12.184-14.66 31.062-6.0469 45.941 0.3125 0.54297 1.0273 0.69141 1.5352 0.32031zm32.469-42.465c-0.15625-1.1953-1.9062-1.2227-2.0859-0.015625l-3.5078 23.387c-0.12891 0.11328-0.25391 0.22656-0.375 0.34766-2.7227 2.7227-2.7227 7.1328 0 9.8516 4.3789 4.3789 11.895 1.2578 11.895-4.9258 0-3.4258-2.3867-5.2188-2.418-5.2773zm1.1797 22.039-2.2227-14.805-2.2227 14.805c1.4375-0.48438 3.0078-0.48047 4.4453 0zm1.2148 3.1719c-3.0352-3.0352-8.293-0.90234-8.293 3.4336 0 4.3164 5.2422 6.4844 8.293 3.4336 1.8945-1.8945 1.8945-4.9727 0-6.8672zm-17.883 22.926c-0.50391-0.28906-1.1484-0.12109-1.4375 0.38281l-3.418 5.9219c-0.28906 0.50391-0.12109 1.1484 0.38281 1.4375 11.676 6.7578 26.16 6.7578 37.84 0 0.50391-0.28906 0.67578-0.93359 0.38281-1.4375l-3.4219-5.9219c-0.28906-0.50391-0.93359-0.67578-1.4375-0.38281-8.9062 5.1562-19.984 5.1523-28.891 0zm6.4141 4.918c-2.2969-0.61328-4.4883-1.4883-6.5469-2.5859l-2.3672 4.1016c10.543 5.6914 23.352 5.6914 33.895 0l-2.3672-4.1016c-6.9102 3.6914-15.016 4.6211-22.613 2.5859zm38.359-60.27c-16.75-16.75-43.906-16.75-60.656 0s-16.75 43.906 0 60.656 43.906 16.75 60.656 0 16.75-43.906 0-60.656z" fill="currentColor"/></svg>