<svg xmlns="http://www.w3.org/2000/svg" version="1.1" viewBox="-5.0 -10.0 110.0 135.0">
 <path d="m34.832 73.848c-0.29688 0.15234-0.65234 0.15234-0.95312 0h-27.824c-1.3906 0-1.3906-2.1094 0-2.1094h25.559c-9.2344-9.8828-9.0234-25.348 0.59766-34.965 9.8281-9.8281 25.758-9.8281 35.586 0 7.5703 7.5703 9.5391 19.141 4.8477 28.785h21.309c1.3906 0 1.3906 2.1094 0 2.1094l-40.789-0.003907c-1.3906 0-1.3906-2.1094 0-2.1094h17.109c8.2344-15.148-2.6484-34.047-20.273-34.047-16.895 0-27.934 17.559-20.945 32.703 1.3281 2.8789 3.2305 5.4336 5.5625 7.5234h47.379c1.3906 0 1.3906 2.1094 0 2.1094zm14.113-59.012c0-1.3906 2.1094-1.3906 2.1094 0v6.9766c0 1.3906-2.1094 1.3906-2.1094 0zm20.008 4.8008-3.4844 6.0352c-0.6875 1.1953 1.1289 2.2461 1.8203 1.0469l3.4844-6.0352c0.69141-1.1992-1.1328-2.2461-1.8203-1.0469zm14.93 14.152-6.0352 3.4844c-1.1992 0.69141-0.14844 2.5117 1.0469 1.8203l6.0352-3.4844c1.1992-0.6875 0.14844-2.5078-1.0469-1.8203zm5.8438 19.719h-6.9766c-1.3906 0-1.3906 2.1094 0 2.1094h6.9766c1.3906 0 1.3906-2.1094 0-2.1094zm-72.48 0h-6.9766c-1.3906 0-1.3906 2.1094 0 2.1094h6.9766c1.3906 0 1.3906-2.1094 0-2.1094zm17.285-27.836-3.4844-6.0352c-0.69141-1.1992-2.5117-0.14844-1.8203 1.0469l3.4844 6.0352c0.69141 1.1992 2.5078 0.15234 1.8203-1.0469zm-12.375 11.602-6.0352-3.4844c-1.1953-0.6875-2.2461 1.1289-1.0469 1.8203l6.0352 3.4844c1.1953 0.69141 2.2461-1.1289 1.0469-1.8203zm28.898 21.617v-14.613l3.4453 3.4453c0.98047 0.98047 2.4727-0.50781 1.4922-1.4922l-5.2266-5.2266c-0.35938-0.36719-0.91406-0.4375-1.3438-0.15234l-5.4102 5.3789c-0.98047 0.98047 0.50781 2.4727 1.4922 1.4922l3.4453-3.4453v14.613c-0.003907 1.3867 2.1055 1.3867 2.1055 0zm6.0078 21.137c-1.3906 0-1.3906-2.1094 0-2.1094h7.9297c1.3906 0 1.3906 2.1094 0 2.1094zm-31.145 6.1758c-1.3867 0-1.3867-2.1094 0-2.1094h48.164c1.3906 0 1.3906 2.1094 0 2.1094zm-8.4414-6.1758c-1.3867 0-1.3867-2.1094 0-2.1094h32.262c1.3906 0 1.3906 2.1094 0 2.1094z" fill="currentColor"/>
</svg>