<svg xmlns="http://www.w3.org/2000/svg" xmlns:xlink="http://www.w3.org/1999/xlink" version="1.1" x="0px" y="0px" viewBox="6.0 3.5 88.0 108.0" fill="currentColor"><path d="M27.5,33.9h45.1c0.7,0,1.2-0.6,1.2-1.2s-0.6-1.2-1.2-1.2H27.5c-0.7,0-1.2,0.6-1.2,1.2C26.2,33.3,26.8,33.9,27.5,33.9z"/><path d="M28.5,40.1c-0.7,0-1.2,0.6-1.2,1.2s0.6,1.2,1.2,1.2h14.1c0.7,0,1.2-0.6,1.2-1.2s-0.6-1.2-1.2-1.2H28.5z"/><path d="M72.8,41.3c0-0.7-0.6-1.2-1.2-1.2H49.4c-0.7,0-1.2,0.6-1.2,1.2s0.6,1.2,1.2,1.2h22.2C72.2,42.6,72.8,42,72.8,41.3z"/><path d="M72.8,58.7c0-0.7-0.6-1.2-1.2-1.2H28.5c-0.7,0-1.2,0.6-1.2,1.2s0.6,1.2,1.2,1.2h43.1C72.2,59.9,72.8,59.4,72.8,58.7z"/><path d="M24.3,51.2h34.1c0.7,0,1.2-0.6,1.2-1.2s-0.6-1.2-1.2-1.2H24.3c-0.7,0-1.2,0.6-1.2,1.2S23.6,51.2,24.3,51.2z"/><path d="M64.9,50c0,0.7,0.6,1.2,1.2,1.2h9.6c0.7,0,1.2-0.6,1.2-1.2s-0.6-1.2-1.2-1.2h-9.6C65.4,48.8,64.9,49.3,64.9,50z"/><path d="M26.7,66.1c-0.7,0-1.2,0.6-1.2,1.2s0.6,1.2,1.2,1.2h7.4c0.7,0,1.2-0.6,1.2-1.2s-0.6-1.2-1.2-1.2H26.7z"/><path d="M41.2,68.6h32c0.7,0,1.2-0.6,1.2-1.2s-0.6-1.2-1.2-1.2h-32c-0.7,0-1.2,0.6-1.2,1.2S40.5,68.6,41.2,68.6z"/></svg>