<svg xmlns="http://www.w3.org/2000/svg" version="1.1" viewBox="-5.0 -10.0 110.0 135.0">
 <path d="m81.098 46.527c0.46094 1.3789-2.4219 3.0195-2.4219-1.9414 0-7.2422 8.8008-10.898 13.93-5.7695 5.1289 5.1289 1.4766 13.93-5.7695 13.93h-33.449c-1.3906 0-1.3906-2.1094 0-2.1094h33.445c5.375 0 8.0781-6.5273 4.2773-10.328-4.5156-4.5156-12.039 0.21484-10.012 6.2188zm-61.387-12.211c-1.3867 0-1.3867-2.1094 0-2.1094h18.062c1.3867 0 1.3867 2.1094 0 2.1094zm-7.4688 18.43c-1.3867 0-1.3867-2.1094 0-2.1094h29.297c1.3906 0 1.3906 2.1094 0 2.1094zm57.434 13.379c-1.3906 0-1.3906-2.1094 0-2.1094h9.9414c1.3906 0 1.3906 2.1094 0 2.1094zm-23.344-3.4531c0.44531-1.3125 2.4375-0.63672 1.9922 0.67578-1.8047 5.3398 4.8945 9.5625 8.9219 5.5352 3.3867-3.3867 0.97656-9.1992-3.8125-9.1992h-32.711c-1.3906 0-1.3906-2.1094 0-2.1094h32.715c6.6562 0 10.016 8.0859 5.3008 12.801-5.5938 5.5938-14.926-0.25781-12.406-7.7031zm5.9531-24.156c-2.2812-6.7617 6.1914-12.09 11.277-7.0039 4.2812 4.2812 1.2344 11.633-4.8164 11.633h-35.887c-1.3867 0-1.3867 2.1094 0 2.1094h35.887c7.9219 0 11.918-9.625 6.3086-15.234-5.6094-5.6094-15.234-1.6133-15.234 6.3086 0 5.2852 2.9258 3.5703 2.4648 2.1875zm-38.871 4.6289c1.3906 0 1.3906 2.1094 0 2.1094l-7.3711 0.003906c-1.3867 0-1.3867-2.1094 0-2.1094z" fill="currentColor"/>
</svg>